<svg xmlns="http://www.w3.org/2000/svg" viewBox="0 0 240 200" role="img" aria-labelledby="title desc"><title id="title">Cellular death</title><desc id="desc">A cell separates into membrane-bound fragments during apoptosis, one form of cell death.</desc><defs><radialGradient id="mint" cx="35%" cy="30%" r="85%"><stop stop-color="#91bca4" stop-opacity=".75"/><stop offset=".5" stop-color="#335d4f" stop-opacity=".8"/><stop offset="1" stop-color="#142b28"/></radialGradient><radialGradient id="copper" cx="30%" cy="25%" r="90%"><stop stop-color="#d0ad94"/><stop offset=".55" stop-color="#7e6257"/><stop offset="1" stop-color="#332f30"/></radialGradient><linearGradient id="blue"><stop stop-color="#9abdc9"/><stop offset="1" stop-color="#294852"/></linearGradient><marker id="arrow" markerWidth="6" markerHeight="6" refX="5" refY="3" orient="auto"><path d="M0 0L6 3L0 6" fill="#afe3cb"/></marker></defs><g fill="none" stroke="#7ca594" opacity=".14"><circle cx="120" cy="100" r="83"/><circle cx="120" cy="100" r="68" stroke-dasharray="2 5"/><path d="M20 100H220M120 8V192" stroke-dasharray="2 6"/></g><circle cx="55" cy="95" r="31" fill="url(#mint)" stroke="#afe3cb" stroke-width="1.2" /><circle cx="57" cy="93" r="11.16" fill="url(#copper)" stroke="#d3ac96" stroke-width="1.2" /><ellipse cx="40.120000000000005" cy="102.44" rx="4.6499999999999995" ry="2.79" fill="#82ab91" stroke="#afe3cb" stroke-width="1.2" /><path d="M92 95L116 95" fill="none" stroke="#afe3cb" stroke-width="1.5" stroke-linecap="round" stroke-linejoin="round" marker-end="url(#arrow)"/><circle cx="153" cy="81" r="17" fill="url(#mint)" stroke="#afe3cb" stroke-width="1.2" /><circle cx="176" cy="119" r="13" fill="url(#mint)" stroke="#afe3cb" stroke-width="1.2" /><circle cx="140" cy="125" r="10" fill="url(#mint)" stroke="#afe3cb" stroke-width="1.2" /><circle cx="151" cy="79" r="4" fill="url(#copper)" stroke="#d3ac96" stroke-width="1.2" /><circle cx="175" cy="118" r="4" fill="url(#copper)" stroke="#d3ac96" stroke-width="1.2" /><circle cx="139" cy="123" r="4" fill="url(#copper)" stroke="#d3ac96" stroke-width="1.2" /><circle cx="196" cy="77" r="7" fill="url(#mint)" stroke="#afe3cb" stroke-width="1.2" /><circle cx="196" cy="146" r="6" fill="url(#mint)" stroke="#afe3cb" stroke-width="1.2" /><text x="119" y="182" fill="#719a88" text-anchor="middle" font-family="Arial,sans-serif" font-size="7" letter-spacing="1">APOPTOSIS · ONE EXAMPLE</text></svg>