<svg xmlns="http://www.w3.org/2000/svg" viewBox="0 0 240 200" role="img" aria-labelledby="title desc"><title id="title">Epigenetic alterations</title><desc id="desc">Changing chemical marks on DNA symbolize altered gene regulation.</desc><defs><radialGradient id="mint" cx="35%" cy="30%" r="85%"><stop stop-color="#91bca4" stop-opacity=".75"/><stop offset=".5" stop-color="#335d4f" stop-opacity=".8"/><stop offset="1" stop-color="#142b28"/></radialGradient><radialGradient id="copper" cx="30%" cy="25%" r="90%"><stop stop-color="#d0ad94"/><stop offset=".55" stop-color="#7e6257"/><stop offset="1" stop-color="#332f30"/></radialGradient><linearGradient id="blue"><stop stop-color="#9abdc9"/><stop offset="1" stop-color="#294852"/></linearGradient><marker id="arrow" markerWidth="6" markerHeight="6" refX="5" refY="3" orient="auto"><path d="M0 0L6 3L0 6" fill="#afe3cb"/></marker></defs><g fill="none" stroke="#7ca594" opacity=".14"><circle cx="120" cy="100" r="83"/><circle cx="120" cy="100" r="68" stroke-dasharray="2 5"/><path d="M20 100H220M120 8V192" stroke-dasharray="2 6"/></g><path d="M107.0 20.0L107 20.0" fill="none" stroke="#afe3cb" stroke-width="3" stroke-linecap="round" stroke-linejoin="round" /><path d="M107 20.0L107.0 20.0" fill="none" stroke="#8db5cf" stroke-width="3" stroke-linecap="round" stroke-linejoin="round" /><path d="M120.51906080272688 27.75L107 27.75" fill="none" stroke="#afe3cb" stroke-width="3" stroke-linecap="round" stroke-linejoin="round" /><path d="M107 27.75L93.48093919727312 27.75" fill="none" stroke="#8db5cf" stroke-width="3" stroke-linecap="round" stroke-linejoin="round" /><path d="M128.87429987478853 35.5L107 35.5" fill="none" stroke="#afe3cb" stroke-width="3" stroke-linecap="round" stroke-linejoin="round" /><path d="M107 35.5L85.12570012521147 35.5" fill="none" stroke="#8db5cf" stroke-width="3" stroke-linecap="round" stroke-linejoin="round" /><path d="M128.87429987478853 43.25L107 43.25" fill="none" stroke="#afe3cb" stroke-width="3" stroke-linecap="round" stroke-linejoin="round" /><path d="M107 43.25L85.12570012521147 43.25" fill="none" stroke="#8db5cf" stroke-width="3" stroke-linecap="round" stroke-linejoin="round" /><path d="M120.51906080272688 51.0L107 51.0" fill="none" stroke="#afe3cb" stroke-width="3" stroke-linecap="round" stroke-linejoin="round" /><path d="M107 51.0L93.48093919727312 51.0" fill="none" stroke="#8db5cf" stroke-width="3" stroke-linecap="round" stroke-linejoin="round" /><path d="M107.0 58.75L107 58.75" fill="none" stroke="#afe3cb" stroke-width="3" stroke-linecap="round" stroke-linejoin="round" /><path d="M107 58.75L107.0 58.75" fill="none" stroke="#8db5cf" stroke-width="3" stroke-linecap="round" stroke-linejoin="round" /><path d="M93.48093919727312 66.5L107 66.5" fill="none" stroke="#afe3cb" stroke-width="3" stroke-linecap="round" stroke-linejoin="round" /><path d="M107 66.5L120.51906080272688 66.5" fill="none" stroke="#8db5cf" stroke-width="3" stroke-linecap="round" stroke-linejoin="round" /><path d="M85.12570012521147 74.25L107 74.25" fill="none" stroke="#afe3cb" stroke-width="3" stroke-linecap="round" stroke-linejoin="round" /><path d="M107 74.25L128.87429987478853 74.25" fill="none" stroke="#8db5cf" stroke-width="3" stroke-linecap="round" stroke-linejoin="round" /><path d="M85.12570012521147 82.0L107 82.0" fill="none" stroke="#afe3cb" stroke-width="3" stroke-linecap="round" stroke-linejoin="round" /><path d="M107 82.0L128.87429987478853 82.0" fill="none" stroke="#8db5cf" stroke-width="3" stroke-linecap="round" stroke-linejoin="round" /><path d="M93.48093919727312 89.75L107 89.75" fill="none" stroke="#afe3cb" stroke-width="3" stroke-linecap="round" stroke-linejoin="round" /><path d="M107 89.75L120.51906080272688 89.75" fill="none" stroke="#8db5cf" stroke-width="3" stroke-linecap="round" stroke-linejoin="round" /><path d="M107.0 97.5L107 97.5" fill="none" stroke="#afe3cb" stroke-width="3" stroke-linecap="round" stroke-linejoin="round" /><path d="M107 97.5L107.0 97.5" fill="none" stroke="#8db5cf" stroke-width="3" stroke-linecap="round" stroke-linejoin="round" /><path d="M120.51906080272686 105.25L107 105.25" fill="none" stroke="#afe3cb" stroke-width="3" stroke-linecap="round" stroke-linejoin="round" /><path d="M107 105.25L93.48093919727314 105.25" fill="none" stroke="#8db5cf" stroke-width="3" stroke-linecap="round" stroke-linejoin="round" /><path d="M128.87429987478853 113.0L107 113.0" fill="none" stroke="#afe3cb" stroke-width="3" stroke-linecap="round" stroke-linejoin="round" /><path d="M107 113.0L85.12570012521147 113.0" fill="none" stroke="#8db5cf" stroke-width="3" stroke-linecap="round" stroke-linejoin="round" /><path d="M128.87429987478853 120.75L107 120.75" fill="none" stroke="#afe3cb" stroke-width="3" stroke-linecap="round" stroke-linejoin="round" /><path d="M107 120.75L85.12570012521147 120.75" fill="none" stroke="#8db5cf" stroke-width="3" stroke-linecap="round" stroke-linejoin="round" /><path d="M120.51906080272688 128.5L107 128.5" fill="none" stroke="#afe3cb" stroke-width="3" stroke-linecap="round" stroke-linejoin="round" /><path d="M107 128.5L93.48093919727312 128.5" fill="none" stroke="#8db5cf" stroke-width="3" stroke-linecap="round" stroke-linejoin="round" /><path d="M107.00000000000001 136.25L107 136.25" fill="none" stroke="#afe3cb" stroke-width="3" stroke-linecap="round" stroke-linejoin="round" /><path d="M107 136.25L106.99999999999999 136.25" fill="none" stroke="#8db5cf" stroke-width="3" stroke-linecap="round" stroke-linejoin="round" /><path d="M93.48093919727313 144.0L107 144.0" fill="none" stroke="#afe3cb" stroke-width="3" stroke-linecap="round" stroke-linejoin="round" /><path d="M107 144.0L120.51906080272687 144.0" fill="none" stroke="#8db5cf" stroke-width="3" stroke-linecap="round" stroke-linejoin="round" /><path d="M85.12570012521147 151.75L107 151.75" fill="none" stroke="#afe3cb" stroke-width="3" stroke-linecap="round" stroke-linejoin="round" /><path d="M107 151.75L128.87429987478853 151.75" fill="none" stroke="#8db5cf" stroke-width="3" stroke-linecap="round" stroke-linejoin="round" /><path d="M85.12570012521147 159.5L107 159.5" fill="none" stroke="#afe3cb" stroke-width="3" stroke-linecap="round" stroke-linejoin="round" /><path d="M107 159.5L128.87429987478853 159.5" fill="none" stroke="#8db5cf" stroke-width="3" stroke-linecap="round" stroke-linejoin="round" /><path d="M93.48093919727312 167.25L107 167.25" fill="none" stroke="#afe3cb" stroke-width="3" stroke-linecap="round" stroke-linejoin="round" /><path d="M107 167.25L120.51906080272688 167.25" fill="none" stroke="#8db5cf" stroke-width="3" stroke-linecap="round" stroke-linejoin="round" /><path d="M106.99999999999999 175.0L107 175.0" fill="none" stroke="#afe3cb" stroke-width="3" stroke-linecap="round" stroke-linejoin="round" /><path d="M107 175.0L107.00000000000001 175.0" fill="none" stroke="#8db5cf" stroke-width="3" stroke-linecap="round" stroke-linejoin="round" /><polyline points="107.00,20.00 114.11,23.88 120.52,27.75 125.61,31.62 128.87,35.50 130.00,39.38 128.87,43.25 125.61,47.12 120.52,51.00 114.11,54.88 107.00,58.75 99.89,62.62 93.48,66.50 88.39,70.38 85.13,74.25 84.00,78.12 85.13,82.00 88.39,85.88 93.48,89.75 99.89,93.62 107.00,97.50 114.11,101.38 120.52,105.25 125.61,109.12 128.87,113.00 130.00,116.88 128.87,120.75 125.61,124.62 120.52,128.50 114.11,132.38 107.00,136.25 99.89,140.12 93.48,144.00 88.39,147.88 85.13,151.75 84.00,155.62 85.13,159.50 88.39,163.38 93.48,167.25 99.89,171.12 107.00,175.00" fill="none" stroke="#afe3cb" stroke-width="3"/><polyline points="107.00,20.00 99.89,23.88 93.48,27.75 88.39,31.62 85.13,35.50 84.00,39.38 85.13,43.25 88.39,47.12 93.48,51.00 99.89,54.88 107.00,58.75 114.11,62.62 120.52,66.50 125.61,70.38 128.87,74.25 130.00,78.12 128.87,82.00 125.61,85.88 120.52,89.75 114.11,93.62 107.00,97.50 99.89,101.38 93.48,105.25 88.39,109.12 85.13,113.00 84.00,116.88 85.13,120.75 88.39,124.62 93.48,128.50 99.89,132.38 107.00,136.25 114.11,140.12 120.52,144.00 125.61,147.88 128.87,151.75 130.00,155.62 128.87,159.50 125.61,163.38 120.52,167.25 114.11,171.12 107.00,175.00" fill="none" stroke="#8db5cf" stroke-width="3"/><path d="M142 48l14 -13" fill="none" stroke="#d3ac96" stroke-width="1.5" stroke-linecap="round" stroke-linejoin="round" /><circle cx="159" cy="31" r="6" fill="url(#copper)" stroke="#d3ac96" stroke-width="1.2" /><path d="M75 81l14 -13" fill="none" stroke="#d3ac96" stroke-width="1.5" stroke-linecap="round" stroke-linejoin="round" /><circle cx="92" cy="64" r="6" fill="url(#copper)" stroke="#d3ac96" stroke-width="1.2" /><path d="M143 129l14 -13" fill="none" stroke="#d3ac96" stroke-width="1.5" stroke-linecap="round" stroke-linejoin="round" /><circle cx="160" cy="112" r="6" fill="url(#copper)" stroke="#d3ac96" stroke-width="1.2" /><path d="M176 71v29M166 86h20" fill="none" stroke="#8db5cf" stroke-width="2" stroke-linecap="round" stroke-linejoin="round" /><path d="M169 130h21" fill="none" stroke="#d3ac96" stroke-width="2" stroke-linecap="round" stroke-linejoin="round" /></svg>