<svg xmlns="http://www.w3.org/2000/svg" viewBox="0 0 240 200" role="img" aria-labelledby="title desc"><title id="title">Exoskeletons</title><desc id="desc">A support frame lies outside a biological body, emphasizing wearable movement assistance.</desc><defs><radialGradient id="mint" cx="35%" cy="30%" r="85%"><stop stop-color="#91bca4" stop-opacity=".75"/><stop offset=".5" stop-color="#335d4f" stop-opacity=".8"/><stop offset="1" stop-color="#142b28"/></radialGradient><radialGradient id="copper" cx="30%" cy="25%" r="90%"><stop stop-color="#d0ad94"/><stop offset=".55" stop-color="#7e6257"/><stop offset="1" stop-color="#332f30"/></radialGradient><linearGradient id="blue"><stop stop-color="#9abdc9"/><stop offset="1" stop-color="#294852"/></linearGradient><marker id="arrow" markerWidth="6" markerHeight="6" refX="5" refY="3" orient="auto"><path d="M0 0L6 3L0 6" fill="#afe3cb"/></marker></defs><g fill="none" stroke="#7ca594" opacity=".14"><circle cx="120" cy="100" r="83"/><circle cx="120" cy="100" r="68" stroke-dasharray="2 5"/><path d="M20 100H220M120 8V192" stroke-dasharray="2 6"/></g><circle cx="120" cy="35" r="13" fill="url(#mint)" stroke="#afe3cb" stroke-width="1.2" /><path d="M120 49V117M116 62L90 95L82 127M124 62L151 96L157 127M120 117L97 169M120 117L143 169" fill="none" stroke="#afe3cb" stroke-width="5" stroke-linecap="round" stroke-linejoin="round" /><path d="M101 59L83 94L77 126M139 59L158 94L164 126M105 116L84 173M134 116L158 173" fill="none" stroke="#b4c7ed" stroke-width="4" stroke-linecap="round" stroke-linejoin="round" /><circle cx="89" cy="144" r="6" fill="#26343a" stroke="#b4c7ed" stroke-width="1.2" /><circle cx="149" cy="144" r="6" fill="#26343a" stroke="#b4c7ed" stroke-width="1.2" /></svg>