<svg xmlns="http://www.w3.org/2000/svg" viewBox="0 0 240 200" role="img" aria-labelledby="title desc"><title id="title">Genetic disease</title><desc id="desc">A highlighted DNA variant connects to different biological outcomes; effects depend on context.</desc><defs><radialGradient id="mint" cx="35%" cy="30%" r="85%"><stop stop-color="#91bca4" stop-opacity=".75"/><stop offset=".5" stop-color="#335d4f" stop-opacity=".8"/><stop offset="1" stop-color="#142b28"/></radialGradient><radialGradient id="copper" cx="30%" cy="25%" r="90%"><stop stop-color="#d0ad94"/><stop offset=".55" stop-color="#7e6257"/><stop offset="1" stop-color="#332f30"/></radialGradient><linearGradient id="blue"><stop stop-color="#9abdc9"/><stop offset="1" stop-color="#294852"/></linearGradient><marker id="arrow" markerWidth="6" markerHeight="6" refX="5" refY="3" orient="auto"><path d="M0 0L6 3L0 6" fill="#afe3cb"/></marker></defs><g fill="none" stroke="#7ca594" opacity=".14"><circle cx="120" cy="100" r="83"/><circle cx="120" cy="100" r="68" stroke-dasharray="2 5"/><path d="M20 100H220M120 8V192" stroke-dasharray="2 6"/></g><path d="M92.0 21.0L92 21.0" fill="none" stroke="#afe3cb" stroke-width="3" stroke-linecap="round" stroke-linejoin="round" /><path d="M92 21.0L92.0 21.0" fill="none" stroke="#8db5cf" stroke-width="3" stroke-linecap="round" stroke-linejoin="round" /><path d="M105.51906080272688 28.7L92 28.7" fill="none" stroke="#afe3cb" stroke-width="3" stroke-linecap="round" stroke-linejoin="round" /><path d="M92 28.7L78.48093919727312 28.7" fill="none" stroke="#8db5cf" stroke-width="3" stroke-linecap="round" stroke-linejoin="round" /><path d="M113.87429987478853 36.4L92 36.4" fill="none" stroke="#afe3cb" stroke-width="3" stroke-linecap="round" stroke-linejoin="round" /><path d="M92 36.4L70.12570012521147 36.4" fill="none" stroke="#8db5cf" stroke-width="3" stroke-linecap="round" stroke-linejoin="round" /><path d="M113.87429987478853 44.1L92 44.1" fill="none" stroke="#afe3cb" stroke-width="3" stroke-linecap="round" stroke-linejoin="round" /><path d="M92 44.1L70.12570012521147 44.1" fill="none" stroke="#8db5cf" stroke-width="3" stroke-linecap="round" stroke-linejoin="round" /><path d="M105.51906080272688 51.8L92 51.8" fill="none" stroke="#afe3cb" stroke-width="3" stroke-linecap="round" stroke-linejoin="round" /><path d="M92 51.8L78.48093919727312 51.8" fill="none" stroke="#8db5cf" stroke-width="3" stroke-linecap="round" stroke-linejoin="round" /><path d="M92.0 59.5L92 59.5" fill="none" stroke="#afe3cb" stroke-width="3" stroke-linecap="round" stroke-linejoin="round" /><path d="M92 59.5L92.0 59.5" fill="none" stroke="#8db5cf" stroke-width="3" stroke-linecap="round" stroke-linejoin="round" /><path d="M78.48093919727312 67.2L92 67.2" fill="none" stroke="#afe3cb" stroke-width="3" stroke-linecap="round" stroke-linejoin="round" /><path d="M92 67.2L105.51906080272688 67.2" fill="none" stroke="#8db5cf" stroke-width="3" stroke-linecap="round" stroke-linejoin="round" /><path d="M70.12570012521147 74.9L92 74.9" fill="none" stroke="#afe3cb" stroke-width="3" stroke-linecap="round" stroke-linejoin="round" /><path d="M92 74.9L113.87429987478853 74.9" fill="none" stroke="#8db5cf" stroke-width="3" stroke-linecap="round" stroke-linejoin="round" /><path d="M70.12570012521147 82.6L92 82.6" fill="none" stroke="#afe3cb" stroke-width="3" stroke-linecap="round" stroke-linejoin="round" /><path d="M92 82.6L113.87429987478853 82.6" fill="none" stroke="#8db5cf" stroke-width="3" stroke-linecap="round" stroke-linejoin="round" /><path d="M78.48093919727312 90.3L92 90.3" fill="none" stroke="#afe3cb" stroke-width="3" stroke-linecap="round" stroke-linejoin="round" /><path d="M92 90.3L105.51906080272688 90.3" fill="none" stroke="#8db5cf" stroke-width="3" stroke-linecap="round" stroke-linejoin="round" /><path d="M92.0 98.0L92 98.0" fill="none" stroke="#afe3cb" stroke-width="3" stroke-linecap="round" stroke-linejoin="round" /><path d="M92 98.0L92.0 98.0" fill="none" stroke="#8db5cf" stroke-width="3" stroke-linecap="round" stroke-linejoin="round" /><path d="M105.51906080272686 105.7L92 105.7" fill="none" stroke="#afe3cb" stroke-width="3" stroke-linecap="round" stroke-linejoin="round" /><path d="M92 105.7L78.48093919727314 105.7" fill="none" stroke="#8db5cf" stroke-width="3" stroke-linecap="round" stroke-linejoin="round" /><path d="M113.87429987478853 113.4L92 113.4" fill="none" stroke="#afe3cb" stroke-width="3" stroke-linecap="round" stroke-linejoin="round" /><path d="M92 113.4L70.12570012521147 113.4" fill="none" stroke="#8db5cf" stroke-width="3" stroke-linecap="round" stroke-linejoin="round" /><path d="M113.87429987478853 121.1L92 121.1" fill="none" stroke="#afe3cb" stroke-width="3" stroke-linecap="round" stroke-linejoin="round" /><path d="M92 121.1L70.12570012521147 121.1" fill="none" stroke="#8db5cf" stroke-width="3" stroke-linecap="round" stroke-linejoin="round" /><path d="M105.51906080272688 128.8L92 128.8" fill="none" stroke="#afe3cb" stroke-width="3" stroke-linecap="round" stroke-linejoin="round" /><path d="M92 128.8L78.48093919727312 128.8" fill="none" stroke="#8db5cf" stroke-width="3" stroke-linecap="round" stroke-linejoin="round" /><path d="M92.00000000000001 136.5L92 136.5" fill="none" stroke="#afe3cb" stroke-width="3" stroke-linecap="round" stroke-linejoin="round" /><path d="M92 136.5L91.99999999999999 136.5" fill="none" stroke="#8db5cf" stroke-width="3" stroke-linecap="round" stroke-linejoin="round" /><path d="M78.48093919727313 144.2L92 144.2" fill="none" stroke="#afe3cb" stroke-width="3" stroke-linecap="round" stroke-linejoin="round" /><path d="M92 144.2L105.51906080272687 144.2" fill="none" stroke="#8db5cf" stroke-width="3" stroke-linecap="round" stroke-linejoin="round" /><path d="M70.12570012521147 151.9L92 151.9" fill="none" stroke="#afe3cb" stroke-width="3" stroke-linecap="round" stroke-linejoin="round" /><path d="M92 151.9L113.87429987478853 151.9" fill="none" stroke="#8db5cf" stroke-width="3" stroke-linecap="round" stroke-linejoin="round" /><path d="M70.12570012521147 159.6L92 159.6" fill="none" stroke="#afe3cb" stroke-width="3" stroke-linecap="round" stroke-linejoin="round" /><path d="M92 159.6L113.87429987478853 159.6" fill="none" stroke="#8db5cf" stroke-width="3" stroke-linecap="round" stroke-linejoin="round" /><path d="M78.48093919727312 167.3L92 167.3" fill="none" stroke="#afe3cb" stroke-width="3" stroke-linecap="round" stroke-linejoin="round" /><path d="M92 167.3L105.51906080272688 167.3" fill="none" stroke="#8db5cf" stroke-width="3" stroke-linecap="round" stroke-linejoin="round" /><path d="M91.99999999999999 175.0L92 175.0" fill="none" stroke="#afe3cb" stroke-width="3" stroke-linecap="round" stroke-linejoin="round" /><path d="M92 175.0L92.00000000000001 175.0" fill="none" stroke="#8db5cf" stroke-width="3" stroke-linecap="round" stroke-linejoin="round" /><polyline points="92.00,21.00 99.11,24.85 105.52,28.70 110.61,32.55 113.87,36.40 115.00,40.25 113.87,44.10 110.61,47.95 105.52,51.80 99.11,55.65 92.00,59.50 84.89,63.35 78.48,67.20 73.39,71.05 70.13,74.90 69.00,78.75 70.13,82.60 73.39,86.45 78.48,90.30 84.89,94.15 92.00,98.00 99.11,101.85 105.52,105.70 110.61,109.55 113.87,113.40 115.00,117.25 113.87,121.10 110.61,124.95 105.52,128.80 99.11,132.65 92.00,136.50 84.89,140.35 78.48,144.20 73.39,148.05 70.13,151.90 69.00,155.75 70.13,159.60 73.39,163.45 78.48,167.30 84.89,171.15 92.00,175.00" fill="none" stroke="#afe3cb" stroke-width="3"/><polyline points="92.00,21.00 84.89,24.85 78.48,28.70 73.39,32.55 70.13,36.40 69.00,40.25 70.13,44.10 73.39,47.95 78.48,51.80 84.89,55.65 92.00,59.50 99.11,63.35 105.52,67.20 110.61,71.05 113.87,74.90 115.00,78.75 113.87,82.60 110.61,86.45 105.52,90.30 99.11,94.15 92.00,98.00 84.89,101.85 78.48,105.70 73.39,109.55 70.13,113.40 69.00,117.25 70.13,121.10 73.39,124.95 78.48,128.80 84.89,132.65 92.00,136.50 99.11,140.35 105.52,144.20 110.61,148.05 113.87,151.90 115.00,155.75 113.87,159.60 110.61,163.45 105.52,167.30 99.11,171.15 92.00,175.00" fill="none" stroke="#8db5cf" stroke-width="3"/><circle cx="90" cy="99" r="17" fill="none" stroke="#d3ac96" stroke-width="1.2" /><path d="M112 99H147V74H181M147 99V146H181" fill="none" stroke="#719a88" stroke-width="1.5" stroke-linecap="round" stroke-linejoin="round" /><circle cx="193" cy="74" r="14" fill="url(#mint)" stroke="#afe3cb" stroke-width="1.2" /><circle cx="193" cy="146" r="14" fill="url(#copper)" stroke="#d3ac96" stroke-width="1.2" /><text x="193" y="79" fill="#afe3cb" text-anchor="middle" font-family="Arial,sans-serif" font-size="12" letter-spacing="1">G</text><text x="193" y="151" fill="#d3ac96" text-anchor="middle" font-family="Arial,sans-serif" font-size="12" letter-spacing="1">A</text></svg>