<svg xmlns="http://www.w3.org/2000/svg" viewBox="0 0 240 200" role="img" aria-labelledby="title desc"><title id="title">Gene expression</title><desc id="desc">DNA information is transcribed into RNA and translated into a protein.</desc><defs><radialGradient id="mint" cx="35%" cy="30%" r="85%"><stop stop-color="#91bca4" stop-opacity=".75"/><stop offset=".5" stop-color="#335d4f" stop-opacity=".8"/><stop offset="1" stop-color="#142b28"/></radialGradient><radialGradient id="copper" cx="30%" cy="25%" r="90%"><stop stop-color="#d0ad94"/><stop offset=".55" stop-color="#7e6257"/><stop offset="1" stop-color="#332f30"/></radialGradient><linearGradient id="blue"><stop stop-color="#9abdc9"/><stop offset="1" stop-color="#294852"/></linearGradient><marker id="arrow" markerWidth="6" markerHeight="6" refX="5" refY="3" orient="auto"><path d="M0 0L6 3L0 6" fill="#afe3cb"/></marker></defs><g fill="none" stroke="#7ca594" opacity=".14"><circle cx="120" cy="100" r="83"/><circle cx="120" cy="100" r="68" stroke-dasharray="2 5"/><path d="M20 100H220M120 8V192" stroke-dasharray="2 6"/></g><g transform="translate(0 5)"><path d="M52.0 25.0L52 25.0" fill="none" stroke="#afe3cb" stroke-width="3" stroke-linecap="round" stroke-linejoin="round" /><path d="M52 25.0L52.0 25.0" fill="none" stroke="#8db5cf" stroke-width="3" stroke-linecap="round" stroke-linejoin="round" /><path d="M61.404564036679574 29.75L52 29.75" fill="none" stroke="#afe3cb" stroke-width="3" stroke-linecap="round" stroke-linejoin="round" /><path d="M52 29.75L42.595435963320426 29.75" fill="none" stroke="#8db5cf" stroke-width="3" stroke-linecap="round" stroke-linejoin="round" /><path d="M67.21690426072246 34.5L52 34.5" fill="none" stroke="#afe3cb" stroke-width="3" stroke-linecap="round" stroke-linejoin="round" /><path d="M52 34.5L36.78309573927754 34.5" fill="none" stroke="#8db5cf" stroke-width="3" stroke-linecap="round" stroke-linejoin="round" /><path d="M67.21690426072246 39.25L52 39.25" fill="none" stroke="#afe3cb" stroke-width="3" stroke-linecap="round" stroke-linejoin="round" /><path d="M52 39.25L36.78309573927754 39.25" fill="none" stroke="#8db5cf" stroke-width="3" stroke-linecap="round" stroke-linejoin="round" /><path d="M61.404564036679574 44.0L52 44.0" fill="none" stroke="#afe3cb" stroke-width="3" stroke-linecap="round" stroke-linejoin="round" /><path d="M52 44.0L42.595435963320426 44.0" fill="none" stroke="#8db5cf" stroke-width="3" stroke-linecap="round" stroke-linejoin="round" /><path d="M52.0 48.75L52 48.75" fill="none" stroke="#afe3cb" stroke-width="3" stroke-linecap="round" stroke-linejoin="round" /><path d="M52 48.75L52.0 48.75" fill="none" stroke="#8db5cf" stroke-width="3" stroke-linecap="round" stroke-linejoin="round" /><path d="M42.59543596332043 53.5L52 53.5" fill="none" stroke="#afe3cb" stroke-width="3" stroke-linecap="round" stroke-linejoin="round" /><path d="M52 53.5L61.40456403667957 53.5" fill="none" stroke="#8db5cf" stroke-width="3" stroke-linecap="round" stroke-linejoin="round" /><path d="M36.78309573927754 58.25L52 58.25" fill="none" stroke="#afe3cb" stroke-width="3" stroke-linecap="round" stroke-linejoin="round" /><path d="M52 58.25L67.21690426072246 58.25" fill="none" stroke="#8db5cf" stroke-width="3" stroke-linecap="round" stroke-linejoin="round" /><path d="M36.78309573927754 63.0L52 63.0" fill="none" stroke="#afe3cb" stroke-width="3" stroke-linecap="round" stroke-linejoin="round" /><path d="M52 63.0L67.21690426072246 63.0" fill="none" stroke="#8db5cf" stroke-width="3" stroke-linecap="round" stroke-linejoin="round" /><path d="M42.595435963320426 67.75L52 67.75" fill="none" stroke="#afe3cb" stroke-width="3" stroke-linecap="round" stroke-linejoin="round" /><path d="M52 67.75L61.404564036679574 67.75" fill="none" stroke="#8db5cf" stroke-width="3" stroke-linecap="round" stroke-linejoin="round" /><path d="M51.99999999999999 72.5L52 72.5" fill="none" stroke="#afe3cb" stroke-width="3" stroke-linecap="round" stroke-linejoin="round" /><path d="M52 72.5L52.00000000000001 72.5" fill="none" stroke="#8db5cf" stroke-width="3" stroke-linecap="round" stroke-linejoin="round" /><path d="M61.40456403667955 77.25L52 77.25" fill="none" stroke="#afe3cb" stroke-width="3" stroke-linecap="round" stroke-linejoin="round" /><path d="M52 77.25L42.59543596332045 77.25" fill="none" stroke="#8db5cf" stroke-width="3" stroke-linecap="round" stroke-linejoin="round" /><path d="M67.21690426072246 82.0L52 82.0" fill="none" stroke="#afe3cb" stroke-width="3" stroke-linecap="round" stroke-linejoin="round" /><path d="M52 82.0L36.78309573927754 82.0" fill="none" stroke="#8db5cf" stroke-width="3" stroke-linecap="round" stroke-linejoin="round" /><path d="M67.21690426072246 86.75L52 86.75" fill="none" stroke="#afe3cb" stroke-width="3" stroke-linecap="round" stroke-linejoin="round" /><path d="M52 86.75L36.78309573927754 86.75" fill="none" stroke="#8db5cf" stroke-width="3" stroke-linecap="round" stroke-linejoin="round" /><path d="M61.404564036679574 91.5L52 91.5" fill="none" stroke="#afe3cb" stroke-width="3" stroke-linecap="round" stroke-linejoin="round" /><path d="M52 91.5L42.595435963320426 91.5" fill="none" stroke="#8db5cf" stroke-width="3" stroke-linecap="round" stroke-linejoin="round" /><path d="M52.00000000000001 96.25L52 96.25" fill="none" stroke="#afe3cb" stroke-width="3" stroke-linecap="round" stroke-linejoin="round" /><path d="M52 96.25L51.99999999999999 96.25" fill="none" stroke="#8db5cf" stroke-width="3" stroke-linecap="round" stroke-linejoin="round" /><path d="M42.59543596332043 101.0L52 101.0" fill="none" stroke="#afe3cb" stroke-width="3" stroke-linecap="round" stroke-linejoin="round" /><path d="M52 101.0L61.40456403667957 101.0" fill="none" stroke="#8db5cf" stroke-width="3" stroke-linecap="round" stroke-linejoin="round" /><path d="M36.78309573927754 105.75L52 105.75" fill="none" stroke="#afe3cb" stroke-width="3" stroke-linecap="round" stroke-linejoin="round" /><path d="M52 105.75L67.21690426072246 105.75" fill="none" stroke="#8db5cf" stroke-width="3" stroke-linecap="round" stroke-linejoin="round" /><path d="M36.78309573927754 110.5L52 110.5" fill="none" stroke="#afe3cb" stroke-width="3" stroke-linecap="round" stroke-linejoin="round" /><path d="M52 110.5L67.21690426072246 110.5" fill="none" stroke="#8db5cf" stroke-width="3" stroke-linecap="round" stroke-linejoin="round" /><path d="M42.595435963320426 115.25L52 115.25" fill="none" stroke="#afe3cb" stroke-width="3" stroke-linecap="round" stroke-linejoin="round" /><path d="M52 115.25L61.404564036679574 115.25" fill="none" stroke="#8db5cf" stroke-width="3" stroke-linecap="round" stroke-linejoin="round" /><path d="M51.99999999999999 120.0L52 120.0" fill="none" stroke="#afe3cb" stroke-width="3" stroke-linecap="round" stroke-linejoin="round" /><path d="M52 120.0L52.00000000000001 120.0" fill="none" stroke="#8db5cf" stroke-width="3" stroke-linecap="round" stroke-linejoin="round" /><polyline points="52.00,25.00 56.94,27.38 61.40,29.75 64.94,32.12 67.22,34.50 68.00,36.88 67.22,39.25 64.94,41.62 61.40,44.00 56.94,46.38 52.00,48.75 47.06,51.12 42.60,53.50 39.06,55.88 36.78,58.25 36.00,60.62 36.78,63.00 39.06,65.38 42.60,67.75 47.06,70.12 52.00,72.50 56.94,74.88 61.40,77.25 64.94,79.62 67.22,82.00 68.00,84.38 67.22,86.75 64.94,89.12 61.40,91.50 56.94,93.88 52.00,96.25 47.06,98.62 42.60,101.00 39.06,103.38 36.78,105.75 36.00,108.12 36.78,110.50 39.06,112.88 42.60,115.25 47.06,117.62 52.00,120.00" fill="none" stroke="#afe3cb" stroke-width="3"/><polyline points="52.00,25.00 47.06,27.38 42.60,29.75 39.06,32.12 36.78,34.50 36.00,36.88 36.78,39.25 39.06,41.62 42.60,44.00 47.06,46.38 52.00,48.75 56.94,51.12 61.40,53.50 64.94,55.88 67.22,58.25 68.00,60.62 67.22,63.00 64.94,65.38 61.40,67.75 56.94,70.12 52.00,72.50 47.06,74.88 42.60,77.25 39.06,79.62 36.78,82.00 36.00,84.38 36.78,86.75 39.06,89.12 42.60,91.50 47.06,93.88 52.00,96.25 56.94,98.62 61.40,101.00 64.94,103.38 67.22,105.75 68.00,108.12 67.22,110.50 64.94,112.88 61.40,115.25 56.94,117.62 52.00,120.00" fill="none" stroke="#8db5cf" stroke-width="3"/></g><path d="M77 90L102 90" fill="none" stroke="#afe3cb" stroke-width="1.5" stroke-linecap="round" stroke-linejoin="round" marker-end="url(#arrow)"/><circle cx="114" cy="67" r="3" fill="url(#mint)" stroke="#afe3cb" stroke-width="1.2" /><path d="M114 67l9 -3" fill="none" stroke="#d3ac96" stroke-width="1" stroke-linecap="round" stroke-linejoin="round" /><circle cx="118" cy="75" r="3" fill="url(#mint)" stroke="#afe3cb" stroke-width="1.2" /><path d="M118 75l9 -3" fill="none" stroke="#d3ac96" stroke-width="1" stroke-linecap="round" stroke-linejoin="round" /><circle cx="122" cy="83" r="3" fill="url(#mint)" stroke="#afe3cb" stroke-width="1.2" /><path d="M122 83l9 -3" fill="none" stroke="#d3ac96" stroke-width="1" stroke-linecap="round" stroke-linejoin="round" /><circle cx="126" cy="91" r="3" fill="url(#mint)" stroke="#afe3cb" stroke-width="1.2" /><path d="M126 91l9 -3" fill="none" stroke="#d3ac96" stroke-width="1" stroke-linecap="round" stroke-linejoin="round" /><circle cx="130" cy="99" r="3" fill="url(#mint)" stroke="#afe3cb" stroke-width="1.2" /><path d="M130 99l9 -3" fill="none" stroke="#d3ac96" stroke-width="1" stroke-linecap="round" stroke-linejoin="round" /><circle cx="134" cy="107" r="3" fill="url(#mint)" stroke="#afe3cb" stroke-width="1.2" /><path d="M134 107l9 -3" fill="none" stroke="#d3ac96" stroke-width="1" stroke-linecap="round" stroke-linejoin="round" /><circle cx="138" cy="115" r="3" fill="url(#mint)" stroke="#afe3cb" stroke-width="1.2" /><path d="M138 115l9 -3" fill="none" stroke="#d3ac96" stroke-width="1" stroke-linecap="round" stroke-linejoin="round" /><path d="M151 100L173 100" fill="none" stroke="#afe3cb" stroke-width="1.5" stroke-linecap="round" stroke-linejoin="round" marker-end="url(#arrow)"/><path d="M184 73C154 91 220 96 190 116S221 149 215 115S181 106 207 77" fill="none" stroke="#d3ac96" stroke-width="4" stroke-linecap="round" stroke-linejoin="round" /><text x="52" y="159" fill="#719a88" text-anchor="middle" font-family="Arial,sans-serif" font-size="8" letter-spacing="1">DNA</text><text x="124" y="159" fill="#719a88" text-anchor="middle" font-family="Arial,sans-serif" font-size="8" letter-spacing="1">RNA</text><text x="196" y="159" fill="#719a88" text-anchor="middle" font-family="Arial,sans-serif" font-size="8" letter-spacing="1">PROTEIN</text></svg>