<svg xmlns="http://www.w3.org/2000/svg" viewBox="0 0 240 200" role="img" aria-labelledby="title desc"><title id="title">Nutrient-sensing changes</title><desc id="desc">Nutrient-responsive signaling pathways converge on cellular growth and maintenance.</desc><defs><radialGradient id="mint" cx="35%" cy="30%" r="85%"><stop stop-color="#91bca4" stop-opacity=".75"/><stop offset=".5" stop-color="#335d4f" stop-opacity=".8"/><stop offset="1" stop-color="#142b28"/></radialGradient><radialGradient id="copper" cx="30%" cy="25%" r="90%"><stop stop-color="#d0ad94"/><stop offset=".55" stop-color="#7e6257"/><stop offset="1" stop-color="#332f30"/></radialGradient><linearGradient id="blue"><stop stop-color="#9abdc9"/><stop offset="1" stop-color="#294852"/></linearGradient><marker id="arrow" markerWidth="6" markerHeight="6" refX="5" refY="3" orient="auto"><path d="M0 0L6 3L0 6" fill="#afe3cb"/></marker></defs><g fill="none" stroke="#7ca594" opacity=".14"><circle cx="120" cy="100" r="83"/><circle cx="120" cy="100" r="68" stroke-dasharray="2 5"/><path d="M20 100H220M120 8V192" stroke-dasharray="2 6"/></g><circle cx="120" cy="99" r="23" fill="url(#mint)" stroke="#afe3cb" stroke-width="1.2" /><text x="120" y="103" fill="#afe3cb" text-anchor="middle" font-family="Arial,sans-serif" font-size="8" letter-spacing="1">CELL</text><path d="M52 46L120 99" fill="none" stroke="#719a88" stroke-width="1.5" stroke-linecap="round" stroke-linejoin="round" /><ellipse cx="52" cy="46" rx="26" ry="17" fill="#163029" stroke="#afe3cb" stroke-width="1.2" /><text x="52" y="49" fill="#afe3cb" text-anchor="middle" font-family="Arial,sans-serif" font-size="8" letter-spacing="1">mTOR</text><path d="M187 46L120 99" fill="none" stroke="#719a88" stroke-width="1.5" stroke-linecap="round" stroke-linejoin="round" /><ellipse cx="187" cy="46" rx="26" ry="17" fill="#163029" stroke="#afe3cb" stroke-width="1.2" /><text x="187" y="49" fill="#afe3cb" text-anchor="middle" font-family="Arial,sans-serif" font-size="8" letter-spacing="1">AMPK</text><path d="M50 159L120 99" fill="none" stroke="#719a88" stroke-width="1.5" stroke-linecap="round" stroke-linejoin="round" /><ellipse cx="50" cy="159" rx="26" ry="17" fill="#163029" stroke="#afe3cb" stroke-width="1.2" /><text x="50" y="162" fill="#afe3cb" text-anchor="middle" font-family="Arial,sans-serif" font-size="8" letter-spacing="1">IGF</text><path d="M187 159L120 99" fill="none" stroke="#719a88" stroke-width="1.5" stroke-linecap="round" stroke-linejoin="round" /><ellipse cx="187" cy="159" rx="26" ry="17" fill="#163029" stroke="#afe3cb" stroke-width="1.2" /><text x="187" y="162" fill="#afe3cb" text-anchor="middle" font-family="Arial,sans-serif" font-size="8" letter-spacing="1">SIRT</text></svg>