<svg xmlns="http://www.w3.org/2000/svg" viewBox="0 0 240 200" role="img" aria-labelledby="title desc"><title id="title">Organ deterioration</title><desc id="desc">An illustrative heart with altered tissue patterns symbolizes reduced organ reserve.</desc><defs><radialGradient id="mint" cx="35%" cy="30%" r="85%"><stop stop-color="#91bca4" stop-opacity=".75"/><stop offset=".5" stop-color="#335d4f" stop-opacity=".8"/><stop offset="1" stop-color="#142b28"/></radialGradient><radialGradient id="copper" cx="30%" cy="25%" r="90%"><stop stop-color="#d0ad94"/><stop offset=".55" stop-color="#7e6257"/><stop offset="1" stop-color="#332f30"/></radialGradient><linearGradient id="blue"><stop stop-color="#9abdc9"/><stop offset="1" stop-color="#294852"/></linearGradient><marker id="arrow" markerWidth="6" markerHeight="6" refX="5" refY="3" orient="auto"><path d="M0 0L6 3L0 6" fill="#afe3cb"/></marker></defs><g fill="none" stroke="#7ca594" opacity=".14"><circle cx="120" cy="100" r="83"/><circle cx="120" cy="100" r="68" stroke-dasharray="2 5"/><path d="M20 100H220M120 8V192" stroke-dasharray="2 6"/></g><path d="M116 58C88 30 59 53 64 87Q65 120 133 170Q176 126 177 86C177 53 149 42 131 63L132 31H117Z" fill="url(#copper)" stroke="#d3ac96" stroke-width="2" stroke-linecap="round" stroke-linejoin="round" /><path d="M97 70L112 99L99 119L126 144" fill="none" stroke="#afe3cb" stroke-width="2" stroke-linecap="round" stroke-linejoin="round" /><path d="M120 79L145 87L129 110L151 124" fill="none" stroke="#afe3cb" stroke-width="2" stroke-linecap="round" stroke-linejoin="round" /><path d="M28 165H213" fill="none" stroke="#719a88" stroke-width="1" stroke-linecap="round" stroke-linejoin="round" /><path d="M36 156l15 -10l16 4l18 -6" fill="none" stroke="#afe3cb" stroke-width="2" stroke-linecap="round" stroke-linejoin="round" /></svg>