<svg xmlns="http://www.w3.org/2000/svg" viewBox="0 0 240 200" role="img" aria-labelledby="title desc"><title id="title">Temperature</title><desc id="desc">A thermometer depicts regulation around a typical core temperature; normal temperature varies.</desc><defs><radialGradient id="mint" cx="35%" cy="30%" r="85%"><stop stop-color="#91bca4" stop-opacity=".75"/><stop offset=".5" stop-color="#335d4f" stop-opacity=".8"/><stop offset="1" stop-color="#142b28"/></radialGradient><radialGradient id="copper" cx="30%" cy="25%" r="90%"><stop stop-color="#d0ad94"/><stop offset=".55" stop-color="#7e6257"/><stop offset="1" stop-color="#332f30"/></radialGradient><linearGradient id="blue"><stop stop-color="#9abdc9"/><stop offset="1" stop-color="#294852"/></linearGradient><marker id="arrow" markerWidth="6" markerHeight="6" refX="5" refY="3" orient="auto"><path d="M0 0L6 3L0 6" fill="#afe3cb"/></marker></defs><g fill="none" stroke="#7ca594" opacity=".14"><circle cx="120" cy="100" r="83"/><circle cx="120" cy="100" r="68" stroke-dasharray="2 5"/><path d="M20 100H220M120 8V192" stroke-dasharray="2 6"/></g><path d="M107 39A13 13 0 0 1 133 39V127A27 27 0 1 1 107 127Z" fill="url(#mint)" stroke="#afe3cb" stroke-width="2" stroke-linecap="round" stroke-linejoin="round" /><path d="M120 67V145" fill="none" stroke="#d3ac96" stroke-width="7" stroke-linecap="round" stroke-linejoin="round" /><circle cx="120" cy="149" r="17" fill="url(#copper)" stroke="#d3ac96" stroke-width="1.2" /><path d="M137 42h10" fill="none" stroke="#afe3cb" stroke-width="1" stroke-linecap="round" stroke-linejoin="round" /><path d="M137 55h10" fill="none" stroke="#afe3cb" stroke-width="1" stroke-linecap="round" stroke-linejoin="round" /><path d="M137 68h10" fill="none" stroke="#afe3cb" stroke-width="1" stroke-linecap="round" stroke-linejoin="round" /><path d="M137 81h10" fill="none" stroke="#afe3cb" stroke-width="1" stroke-linecap="round" stroke-linejoin="round" /><path d="M137 94h10" fill="none" stroke="#afe3cb" stroke-width="1" stroke-linecap="round" stroke-linejoin="round" /><path d="M137 107h10" fill="none" stroke="#afe3cb" stroke-width="1" stroke-linecap="round" stroke-linejoin="round" /><text x="172" y="86" fill="#d3ac96" text-anchor="middle" font-family="Arial,sans-serif" font-size="12" letter-spacing="1">37°C</text><path d="M67 60v30M55 75h24M59 64l16 22M59 86l16 -22" fill="none" stroke="#8db5cf" stroke-width="1.4" stroke-linecap="round" stroke-linejoin="round" /></svg>